<?xml version="1.0" encoding="utf-8"?>
<!-- Generator: Adobe Illustrator 23.0.0, SVG Export Plug-In . SVG Version: 6.00 Build 0)  -->
<svg version="1.1" id="Layer_1" xmlns="http://www.w3.org/2000/svg" xmlns:xlink="http://www.w3.org/1999/xlink" x="0px" y="0px"
	 viewBox="0 0 713.5 642" style="enable-background:new 0 0 713.5 642;" xml:space="preserve">
<path d="M93,4C61.9,22.5,0.6,92.9,0,111.4V142c0,38.8,36.2,72.8,69.1,72.8c39.5,0,72.4-32.7,72.4-71.6c0,38.9,31.8,71.6,71.3,71.6
	c39.5,0,70.3-32.7,70.3-71.6c0,38.9,33.8,71.6,73.3,71.6h0.7c39.5,0,73.3-32.7,73.3-71.6c0,38.9,30.8,71.6,70.2,71.6
	s71.3-32.7,71.3-71.6c0,38.9,32.9,71.6,72.4,71.6c32.9,0,69.1-34.1,69.1-72.8v-30.6c-0.6-18.5-61.9-88.9-93-107.4
	c-96.7-3.4-163.8-4-263.7-4C256.8,0,120.5,1.6,93,4L93,4z M282.6,196.6c-3.8,6.6-8.5,12.6-13.9,17.9c-15.5,15.2-36.2,23.6-57.9,23.6
	c-22.5,0-43.1-9-58-23.6c-5.4-5.3-9.5-11-13.3-17.5v0c-3.7,6.6-9,12.3-14.4,17.6c-15.5,15.2-36.3,23.6-58,23.6
	c-2.7,0-5.5-0.7-7.8-1.5c-3.2,33.1-4.5,64.7-5,87.7v0.1c-0.1,11.7-0.1,21.3-0.2,34.7c0.6,69.4-6.9,224.9,30.6,263.1
	c58,13.6,164.9,19.7,272.1,19.7h0c107.2,0,214-6.2,272.1-19.7c37.5-38.2,30-193.7,30.6-263.1c-0.1-13.4-0.1-23-0.2-34.7v-0.1
	c-0.5-23-1.8-54.6-5-87.7c-2.3,0.8-5.1,1.5-7.8,1.5c-21.7,0-42.5-8.5-58-23.6c-5.4-5.3-10.6-11-14.4-17.6l0,0
	c-3.8,6.6-7.9,12.3-13.3,17.5c-14.9,14.6-35.5,23.6-58,23.6s-43-9-57.9-23.6c-5.4-5.3-10.1-11.3-13.9-17.9
	c-3.7,6.6-8.4,12.6-13.8,17.9c-15.5,15.2-36.3,23.6-58,23.6c-0.8,0-1.6,0-2.4-0.1h0c-0.8,0-1.6,0.1-2.4,0.1c-22.5,0-43.1-9-58-23.6
	C291.1,209.2,286.4,203.2,282.6,196.6L282.6,196.6z M223,273.6L223,273.6L223,273.6c23.6,0.1,44.6,0,70.6,28.4
	c20.5-2.1,41.8-3.2,63.2-3.2h0c21.4,0,42.7,1.1,63.2,3.2c26-28.3,46.9-28.3,70.5-28.3h0.1v0c11.2,0,55.7,0,86.8,87.3l33.4,119.7
	c24.7,89.1-7.9,91.3-48.6,91.3c-60.4-2.2-93.8-46.1-93.8-90c-33.4,5.5-72.4,8.2-111.4,8.2h0c-39,0-78-2.7-111.4-8.2
	c0,43.9-33.4,87.7-93.8,90c-40.7-0.1-73.4-2.3-48.6-91.3l33.4-119.7C167.4,273.6,212,273.6,223,273.6L223,273.6z M356.8,342.2
	L356.8,342.2c-0.1,0.1-63.6,58.4-75,79.2l41.6-1.7v36.3c0,1.7,16.7,1,33.4,0.2h0c16.7,0.8,33.4,1.5,33.4-0.2v-36.3l41.6,1.7
	C420.3,400.6,356.8,342.2,356.8,342.2L356.8,342.2L356.8,342.2L356.8,342.2z"/>
</svg>
