<?xml version="1.0" encoding="UTF-8" standalone="no"?><!-- Generator: Gravit.io --><svg xmlns="http://www.w3.org/2000/svg" xmlns:xlink="http://www.w3.org/1999/xlink" style="isolation:isolate" viewBox="0 0 1440 81.7" width="1440pt" height="81.7pt"><defs><clipPath id="_clipPath_cj3aOcDm1trtSplZa0nApmWtArW43CXE"><rect width="1440" height="81.7"/></clipPath></defs><g clip-path="url(#_clipPath_cj3aOcDm1trtSplZa0nApmWtArW43CXE)"><clipPath id="_clipPath_JSnvRsxb5gTqkwpk7559twfSFy79I5ju"><rect x="0" y="0" width="1440" height="81.7" transform="matrix(1,0,0,1,0,0)" fill="rgb(255,255,255)"/></clipPath><g clip-path="url(#_clipPath_JSnvRsxb5gTqkwpk7559twfSFy79I5ju)"><path d=" M 0 54.804 C 11.924 59.546 24.624 62.256 38.901 60.2 C 96.101 51.9 155.414 21.3 214.401 52.6 C 292.076 93.7 304.588 69.6 404.038 55.9 C 435.888 51.5 479.275 61.6 519.25 70.1 C 592.213 85.6 614.15 34.6 730.175 59.2 C 752.762 64 811.425 36.4 852.537 42.8 C 917.699 53 916.237 71.6 1043.962 73.3 C 1131.712 74.5 1138.862 42.1 1178.674 37.3 C 1218.486 32.5 1260.249 62.3 1286.736 66.8 C 1317.716 72.018 1382.943 46.45 1440.005 39.335 Q 1440.035 61.84 1440 81.697 L 0 81.697" fill="rgb(255,255,255)"/><g opacity="0.35"><path d=" M -50.653 42.532 C -37.906 49.438 -24.328 53.385 -9.065 50.391 C 52.087 38.303 115.497 -6.26 178.559 39.322 C 261.6 99.177 274.976 64.08 381.296 44.128 C 415.347 37.721 461.731 52.429 504.467 64.808 C 582.471 87.381 605.923 13.109 729.963 48.934 C 754.111 55.925 816.826 15.73 860.778 25.051 C 930.442 39.905 928.879 66.993 1065.427 69.468 C 1159.239 71.216 1166.883 24.031 1209.445 17.041 C 1252.007 10.05 1296.656 53.449 1324.972 60.002 C 1358.092 67.601 1427.825 30.366 1488.829 20.004 Q 1488.862 52.779 1488.824 81.697 L -50.653 81.697" fill="rgb(255,255,255)"/></g><g opacity="0.35"><path d=" M 0 42.532 C 12.418 49.438 25.645 53.385 40.513 50.391 C 100.084 38.303 161.855 -6.26 223.287 39.322 C 304.181 99.177 317.211 64.08 420.783 44.128 C 453.953 37.721 499.138 52.429 540.77 64.808 C 616.756 87.381 639.603 13.109 760.436 48.934 C 783.959 55.925 845.053 15.73 887.869 25.051 C 955.732 39.905 954.209 66.993 1087.228 69.468 C 1178.614 71.216 1186.061 24.031 1227.522 17.041 C 1268.984 10.05 1312.478 53.449 1340.063 60.002 C 1372.327 67.601 1440.257 30.366 1499.684 20.004 Q 1499.715 52.779 1499.679 81.697 L 0 81.697" fill="rgb(255,255,255)"/></g><g opacity="0.35"><path d=" M -108.543 49.031 C -95.72 54.791 -82.063 58.083 -66.71 55.585 C -5.199 45.503 58.584 8.334 122.016 46.354 C 205.545 96.277 219 67.003 325.945 50.362 C 360.195 45.017 406.852 57.286 449.839 67.61 C 528.301 86.438 551.891 24.489 676.66 54.37 C 700.95 60.201 764.034 26.676 808.244 34.45 C 878.317 46.839 876.744 69.432 1014.095 71.497 C 1108.458 72.955 1116.147 33.6 1158.959 27.769 C 1201.772 21.939 1246.682 58.136 1275.165 63.602 C 1308.48 69.94 1378.623 38.883 1439.985 30.241 Q 1440.017 57.577 1439.98 81.697 L -108.543 81.697" fill="rgb(255,255,255)"/></g></g></g></svg>